<svg xmlns="http://www.w3.org/2000/svg" width="269" height="84.365" viewBox="0 0 269 84.365"><g transform="translate(6.069 57.967)"><g transform="translate(-6.069 -57.967)"><path d="M175.851-13.223H164.914c-1.193,9.645-2.386,19.091-3.58,28.636h-6.165c2.585-20.781,5.071-41.463,7.656-62.344,4.474,0,9.048-.1,13.523,0a24.071,24.071,0,0,1,5.369.7A12.091,12.091,0,0,1,190.766-35.1c.3,5.369,0,10.639-3.182,15.213-1.392,1.989-3.281,3.48-5.369,5.668.3.994.7,2.585,1.193,4.077,4.474,12.727,12.131,22.571,24.858,27.741a32.5,32.5,0,0,0,19.19,1.79A34.823,34.823,0,0,0,247.641,7.956,34.6,34.6,0,0,0,256.49-17.7c-.7-16.506-13.423-30.824-29.829-32.812-5.668-.7-11.534-.5-17.3-.5-12.727-.1-25.554,0-38.281-.1-21.179-.1-42.258-.2-63.437-.2-22.67-.2-45.341-.2-67.912-.4-6.562-.1-13.026.4-18.991,3.281C9.5-42.853,2.641-34,.553-21.774A35.445,35.445,0,0,0,28.891,18.894a51.917,51.917,0,0,0,10.341.895c15.213.1,30.426.1,45.739.1h1.491c-.3,2.187-.6,4.176-.895,6.364H74.331c-12.33,0-24.758,0-37.088-.1-16.7-.2-29.531-7.259-37.983-21.776a39.881,39.881,0,0,1-5.27-22.67A40.621,40.621,0,0,1,1.249-39.87,39.271,39.271,0,0,1,27.3-57.172a40.553,40.553,0,0,1,8.452-.8c15.511,0,31.023.1,46.534.1,22.173.1,44.247.1,66.42.1,24.46.1,48.92,0,73.381.3a40.43,40.43,0,0,1,38.381,28.139c5.568,17.2,1.69,32.514-11.534,44.943a39.245,39.245,0,0,1-24.46,10.639c-15.412,1.193-27.543-4.972-37.287-16.506A52.969,52.969,0,0,1,176.05-12.527,1.437,1.437,0,0,0,175.851-13.223ZM165.61-19.487a1.75,1.75,0,0,0,.6.1c3.281-.2,6.662-.2,9.943-.5a8.013,8.013,0,0,0,6.662-4.773C184.3-27.839,184.4-31.12,184.3-34.5c-.1-2.784-1.193-4.773-3.878-5.27-3.977-.7-8.054-.8-12.131-1.193C167.4-33.507,166.5-26.547,165.61-19.487Z" transform="translate(6.069 57.967)"/><path d="M222.116-45.967c16.8-.1,30.526,13.821,30.526,30.923a30.6,30.6,0,0,1-30.426,30.327,30.514,30.514,0,0,1-30.724-30.824C191.69-32.842,204.616-45.967,222.116-45.967ZM197.755-15.442A24.043,24.043,0,0,0,222.016,8.82a24.252,24.252,0,0,0,24.261-24.062A24.232,24.232,0,0,0,221.917-39.7,24.468,24.468,0,0,0,197.755-15.442Z" transform="translate(4.946 57.899)"/><path d="M86.917,15.27H80.653c1.193-9.744,2.287-19.489,3.48-29.432h-18c-1.094,9.744-2.188,19.489-3.281,29.332H56.491c.4-3.778.8-7.358,1.193-11.037.8-6.861,1.491-13.821,2.287-20.682.7-6.264,1.293-12.628,2.486-18.892a14.746,14.746,0,0,1,8.75-11.136,18.685,18.685,0,0,1,15.312,0c4.474,1.889,6.96,6.861,6.364,12.429-.5,5.27-1.293,10.639-1.889,15.909C90.3-12.571,89.7-7,89.005-1.335,88.21,4.134,87.613,9.7,86.917,15.27Zm-2.088-35.8c.5-4.474,1.094-8.75,1.591-13.125.5-4.773-.895-6.96-4.673-7.756a16.583,16.583,0,0,0-3.182-.2,9.4,9.4,0,0,0-8.153,3.977,14.034,14.034,0,0,0-2.486,7.656c-.3,3.082-.7,6.165-1.094,9.347C72.8-20.525,78.764-20.525,84.829-20.525Z" transform="translate(5.713 57.912)"/><path d="M150.534-13.662h-18c-1.094,9.645-2.187,19.389-3.281,29.133h-6.264l.6-5.966c.6-5.767,1.193-11.534,1.889-17.2.6-4.872,1.193-9.645,1.79-14.517.4-3.58.8-7.259,1.293-10.838.895-6.463,4.872-12.33,11.534-14.02a19.627,19.627,0,0,1,12.628.7c4.474,1.79,6.96,6.562,6.562,12.827-.3,4.375-.994,8.849-1.491,13.224-.7,5.568-1.392,11.136-1.989,16.7-.7,5.668-1.392,11.435-2.088,17.1-.1.7-.1,1.293-.2,2.088h-6.364C148.247,5.827,149.34-3.818,150.534-13.662Zm.7-6.364c.2-1.591.4-3.082.5-4.574.4-3.778.895-7.557,1.094-11.335a4.553,4.553,0,0,0-2.884-4.673c-4.872-1.989-12.528-.8-14.616,6.264a61.32,61.32,0,0,0-1.392,8.551c-.3,1.889-.4,3.778-.6,5.767Z" transform="translate(5.335 57.909)"/><path d="M96.254,26.313H89.791c2.784-24.46,5.568-48.821,8.352-73.48h1.193c4.077,0,8.153-.1,12.33,0,5.469.1,10.341,1.591,13.125,6.761a15.527,15.527,0,0,1,1.491,5.966A24.935,24.935,0,0,1,123.8-20.818c-2.386,4.276-5.966,6.861-10.937,7.06-3.977.2-7.955,0-12.131,0C99.237-.335,97.746,12.889,96.254,26.313Zm5.17-46.236h10.341a6.464,6.464,0,0,0,5.767-3.182c2.386-3.679,2.585-7.855,2.287-12.031a5.2,5.2,0,0,0-4.773-5.17c-3.679-.5-7.358-.5-11.236-.8C103.015-33.843,102.22-26.983,101.425-19.923Z" transform="translate(5.524 57.906)"/><path d="M57.3-40.8c-.3,2.486-.6,4.773-.895,7.358a39.78,39.78,0,0,0-3.182-2.884c-8.75-6.761-21.477-6.662-30.724.1C10.861-27.68,8.574-11.87,17.523-.635A22.985,22.985,0,0,0,32.835,7.917a23.618,23.618,0,0,0,17.9-4.574,25.185,25.185,0,0,0,2.187-1.79c-.4,3.182-.7,5.966-1.094,8.849A29.081,29.081,0,0,1,40.392,14.38,30.008,30.008,0,0,1,19.611,9.706,29.652,29.652,0,0,1,5.691-14.157a29.9,29.9,0,0,1,4.773-18.594A28.322,28.322,0,0,1,20.7-42.5a35.826,35.826,0,0,1,20.185-4.872A27.82,27.82,0,0,1,57.3-40.8Z" transform="translate(6.002 57.907)"/><path d="M99.891,26.7c.3-2.287.5-4.176.7-6.065H198.03V26.7Z" transform="translate(5.466 57.52)"/></g></g></svg>